# xmcd
#
# Track frame offsets:
#	150
#	22759
#	39397
#	59357
#	74410
#	91776
#	111122
#	127381
#	142769
#	161328
#	176461
#	192214
#	201854
#	216699
#	236695
#	256139
#	277474
#	292931
#	311527
#	323244
#	339283
#
# Disc length: 4710 seconds
#
# Revision: 1
# Processed by: cddbd v1.5.2PL0 Copyright (c) Steve Scherf et al.
# Submitted via: audiograbber 1.83.01
#
DISCID=38126415
DTITLE=Митяев Олег - Русские звёзды
DYEAR=2004
DGENRE=Pop
TTITLE0=Крепитесь люди, скоро лето
TTITLE1=Западная Сибирь
TTITLE2=Мама
TTITLE3=Женщина с планеты Земля
TTITLE4=Питер
TTITLE5=Небесный калькулятор
TTITLE6=Француженка
TTITLE7=Шарлевиль
TTITLE8=Прогноз
TTITLE9=Лето это маленькая жизнь
TTITLE10=Письмо из Африки
TTITLE11=Я приду к тебе
TTITLE12=Санкт-Петербурги
TTITLE13=Светлое прошлое
TTITLE14=Воскресенье
TTITLE15=Ночной полёт
TTITLE16=Травник
TTITLE17=Неоконченный отрывок
TTITLE18=Фрагмент
TTITLE19=Соседка
TTITLE20=Как здорово, что мы здесь сегодня собрались
EXTD=
EXTT0=
EXTT1=
EXTT2=
EXTT3=
EXTT4=
EXTT5=
EXTT6=
EXTT7=
EXTT8=
EXTT9=
EXTT10=
EXTT11=
EXTT12=
EXTT13=
EXTT14=
EXTT15=
EXTT16=
EXTT17=
EXTT18=
EXTT19=
EXTT20=
PLAYORDER=
